<?xml version="1.0" standalone="no"?>
<!DOCTYPE svg PUBLIC "-//W3C//DTD SVG 20010904//EN"
 "http://www.w3.org/TR/2001/REC-SVG-20010904/DTD/svg10.dtd">
<svg version="1.0" xmlns="http://www.w3.org/2000/svg"
 width="24.000000pt" height="24.000000pt" viewBox="0 0 24.000000 24.000000"
 preserveAspectRatio="xMidYMid meet">
<metadata>
Created by potrace 1.16, written by Peter Selinger 2001-2019
</metadata>
<g transform="translate(0.000000,24.000000) scale(0.016000,-0.016000)"
fill="#000000" stroke="none">
<path d="M870 1438 c-19 -5 -52 -23 -72 -39 -28 -22 -48 -29 -80 -29 -93 -1
-167 -67 -156 -140 4 -25 1 -29 -27 -34 -17 -3 -48 -20 -69 -38 -32 -26 -48
-32 -90 -32 -67 -1 -118 -33 -145 -90 -12 -23 -21 -51 -21 -62 0 -12 -10 -24
-28 -30 -16 -6 -42 -28 -57 -49 -23 -30 -30 -50 -33 -99 -3 -73 23 -128 78
-160 33 -20 50 -21 366 -21 l331 0 49 30 c57 36 91 89 100 158 l7 47 56 0
c129 1 208 40 247 123 62 134 -11 275 -158 302 -30 6 -37 12 -42 37 -8 42 -82
113 -131 127 -47 13 -77 13 -125 -1z m121 -83 c41 -22 69 -71 69 -123 l0 -43
49 7 c89 12 161 -45 161 -129 0 -87 -65 -137 -179 -137 l-71 0 0 -32 c0 -32
-1 -31 -25 19 -26 58 -97 113 -144 113 -35 0 -47 10 -55 43 -10 42 -87 114
-131 123 -33 6 -36 9 -30 33 15 59 72 79 134 47 26 -14 28 -14 47 21 35 67
110 91 175 58z"/>
<path d="M1220 771 c-23 -19 -24 -20 -7 -39 20 -22 23 -56 5 -50 -7 3 -19 17
-26 31 -13 26 -42 38 -42 17 0 -5 -7 -10 -15 -10 -11 0 -15 -11 -15 -36 0 -33
2 -35 28 -33 15 1 35 -2 45 -6 26 -11 3 -25 -40 -25 -30 0 -33 -3 -33 -32 0
-26 6 -36 26 -45 29 -13 44 -9 44 11 0 7 9 21 20 31 19 18 20 17 20 -7 0 -14
-7 -31 -15 -38 -23 -19 -18 -34 17 -49 24 -11 33 -11 36 -3 2 7 10 12 18 12
19 0 18 34 -1 50 -8 7 -15 21 -15 32 0 16 3 17 20 8 11 -6 20 -16 20 -23 0 -7
4 -18 9 -26 7 -12 14 -12 39 0 27 12 31 18 29 49 -2 34 -3 35 -38 32 -38 -3
-59 11 -37 24 7 4 27 7 44 6 30 -2 32 0 32 30 0 26 -6 36 -26 46 -36 17 -39
16 -46 -13 -3 -13 -15 -29 -26 -35 -17 -9 -20 -8 -20 8 0 11 7 25 15 32 8 7
15 21 15 31 0 11 -7 19 -15 19 -8 0 -15 5 -15 10 0 16 -23 11 -50 -9z"/>
<path d="M838 563 c-75 -90 -60 -178 30 -176 73 2 92 67 42 146 -32 50 -48 57
-72 30z"/>
<path d="M261 519 c-35 -38 -71 -109 -71 -140 0 -71 79 -122 145 -95 65 27 83
92 45 165 -23 45 -68 101 -81 101 -6 0 -23 -14 -38 -31z"/>
<path d="M630 323 c-42 -51 -70 -113 -70 -152 0 -51 55 -101 110 -101 34 0 48
6 76 34 39 39 44 74 19 133 -17 40 -81 123 -95 123 -5 0 -22 -17 -40 -37z"/>
<path d="M1080 340 c0 -5 -7 -10 -15 -10 -8 0 -15 -6 -15 -14 0 -7 7 -19 15
-26 18 -15 20 -53 3 -48 -7 3 -19 17 -26 32 -12 23 -18 27 -40 21 -32 -8 -38
-16 -37 -52 0 -24 4 -28 30 -29 54 -1 58 -3 46 -17 -6 -8 -23 -12 -40 -9 -26
3 -29 1 -33 -28 -4 -23 0 -33 11 -38 9 -3 19 -10 22 -15 10 -15 39 0 39 20 0
10 9 24 20 31 17 11 20 10 20 -7 0 -10 -7 -24 -15 -31 -8 -7 -15 -21 -15 -31
0 -11 7 -19 15 -19 8 0 15 -4 15 -10 0 -16 23 -11 50 9 23 19 24 20 7 39 -19
20 -23 52 -7 52 6 0 16 -12 22 -27 7 -16 13 -30 14 -32 2 -2 16 3 32 10 25 11
30 19 30 46 0 32 -2 33 -38 33 -22 0 -42 4 -45 10 -7 11 29 21 60 17 15 -1 21
5 23 28 6 50 -60 79 -72 31 -7 -30 -36 -43 -36 -17 0 10 7 24 15 31 22 18 18
33 -12 48 -33 15 -43 15 -43 2z"/>
</g>
</svg>
