<?xml version="1.0" standalone="no"?>
<!DOCTYPE svg PUBLIC "-//W3C//DTD SVG 20010904//EN"
 "http://www.w3.org/TR/2001/REC-SVG-20010904/DTD/svg10.dtd">
<svg version="1.0" xmlns="http://www.w3.org/2000/svg"
 width="24.000000pt" height="24.000000pt" viewBox="0 0 24.000000 24.000000"
 preserveAspectRatio="xMidYMid meet">
<metadata>
Created by potrace 1.16, written by Peter Selinger 2001-2019
</metadata>
<g transform="translate(0.000000,24.000000) scale(0.016000,-0.016000)"
fill="#000000" stroke="none">
<path d="M873 1171 c-23 -11 -51 -30 -63 -44 -18 -21 -28 -24 -64 -20 -53 6
-127 -24 -151 -61 -9 -14 -19 -43 -22 -65 -4 -32 -2 -40 13 -44 13 -3 10 -5
-9 -6 -34 -1 -95 -32 -121 -60 -14 -16 -31 -21 -68 -21 -27 0 -63 -6 -81 -14
-47 -19 -94 -77 -102 -126 -5 -29 -13 -44 -28 -50 -58 -22 -107 -104 -107
-175 0 -51 45 -128 89 -153 38 -21 47 -22 382 -22 388 0 392 1 460 77 68 75
71 195 9 281 -30 42 -100 82 -143 82 -22 0 -31 9 -53 56 -30 64 -87 111 -147
121 -21 3 -34 9 -29 12 5 3 12 19 16 34 4 18 18 33 41 44 32 15 37 15 77 -1
43 -16 43 -16 58 6 43 67 107 99 167 83 15 -3 44 -23 65 -44 34 -35 38 -44 38
-90 l0 -52 58 6 c50 6 61 4 91 -17 53 -36 74 -71 74 -123 0 -49 -19 -84 -66
-119 -20 -15 -47 -21 -112 -24 l-85 -5 0 -40 0 -40 93 5 c167 9 251 83 250
223 0 120 -95 225 -205 225 -10 0 -21 14 -28 36 -16 49 -66 103 -115 125 -52
24 -129 24 -182 0z"/>
</g>
</svg>
