<?xml version="1.0" standalone="no"?>
<!DOCTYPE svg PUBLIC "-//W3C//DTD SVG 20010904//EN"
 "http://www.w3.org/TR/2001/REC-SVG-20010904/DTD/svg10.dtd">
<svg version="1.0" xmlns="http://www.w3.org/2000/svg"
 width="24.000000pt" height="24.000000pt" viewBox="0 0 24.000000 24.000000"
 preserveAspectRatio="xMidYMid meet">
<metadata>
Created by potrace 1.16, written by Peter Selinger 2001-2019
</metadata>
<g transform="translate(0.000000,24.000000) scale(0.016000,-0.016000)"
fill="#000000" stroke="none">
<path d="M969 1281 c-20 -4 -53 -17 -73 -29 -37 -22 -39 -22 -85 -6 -68 25
-116 13 -167 -41 -23 -23 -58 -48 -77 -54 -21 -7 -51 -30 -71 -53 -31 -38 -38
-42 -90 -45 -90 -5 -189 -54 -301 -148 -36 -30 -27 -31 40 -6 48 18 99 25 158
22 20 -1 43 -18 84 -61 33 -35 78 -71 110 -87 50 -24 58 -25 103 -15 47 11 50
10 80 -18 83 -78 268 -80 367 -4 32 24 37 25 84 14 78 -19 164 6 218 64 46 49
57 149 23 212 -14 26 -75 80 -99 88 -10 3 -29 29 -43 58 -20 40 -36 57 -75 79
-54 29 -129 42 -186 30z"/>
<path d="M237 1240 c-74 -22 -132 -97 -144 -187 l-6 -48 50 52 c69 71 116 84
191 52 65 -26 100 -19 121 25 38 80 -88 143 -212 106z"/>
<path d="M174 851 c-33 -20 -49 -39 -41 -47 3 -3 20 4 38 15 19 12 43 21 55
21 30 0 54 -31 54 -69 0 -78 71 -161 138 -161 54 0 74 18 70 60 -2 29 -11 40
-52 67 -26 17 -69 54 -95 82 -43 47 -51 51 -92 51 -26 0 -57 -8 -75 -19z"/>
<path d="M670 701 c0 -6 -7 -11 -15 -11 -8 0 -15 -8 -15 -19 0 -10 7 -24 15
-31 8 -7 15 -21 15 -31 0 -16 -3 -17 -19 -7 -11 7 -22 22 -26 35 -5 22 -35 34
-35 14 0 -5 -8 -11 -18 -13 -12 -4 -17 -14 -16 -34 1 -25 5 -29 30 -30 57 -2
57 -3 44 -19 -7 -9 -22 -12 -40 -9 -25 5 -28 3 -32 -26 -4 -26 -1 -34 14 -38
10 -2 18 -8 18 -13 0 -20 30 -8 35 14 4 13 15 28 26 35 16 10 19 9 19 -6 0
-11 -9 -27 -19 -36 -21 -19 -18 -46 4 -46 7 0 15 -5 17 -10 5 -16 58 12 58 31
0 9 -7 22 -15 29 -8 7 -15 21 -15 31 0 17 3 18 20 7 11 -7 20 -21 20 -31 0
-20 32 -36 38 -19 2 7 10 12 17 12 8 0 13 13 13 35 0 34 -1 35 -34 33 -18 -1
-37 1 -41 6 -13 12 20 26 50 20 25 -5 27 -4 27 30 0 25 -4 36 -15 36 -8 0 -15
5 -15 10 0 20 -29 10 -36 -12 -7 -22 -21 -38 -36 -38 -14 0 -9 27 7 40 20 17
19 46 -2 54 -10 3 -24 9 -30 12 -7 3 -13 1 -13 -5z"/>
<path d="M1080 570 c0 -5 -9 -10 -20 -10 -13 0 -20 -7 -20 -18 0 -11 9 -27 20
-37 11 -10 20 -29 20 -41 0 -21 -2 -23 -25 -12 -14 6 -27 23 -30 39 -7 31 -23
36 -58 17 -28 -17 -37 -29 -29 -43 3 -5 5 -20 3 -33 -2 -21 0 -22 36 -17 21 3
45 1 53 -4 24 -17 -4 -35 -50 -33 l-40 3 0 -41 c0 -33 3 -40 19 -40 10 0 21
-7 25 -15 9 -25 25 -17 40 19 8 19 24 39 35 46 19 9 21 8 21 -13 0 -13 -9 -32
-20 -42 -24 -22 -26 -55 -4 -55 9 0 23 -8 30 -17 13 -17 15 -17 28 -1 7 10 21
18 30 18 22 0 20 33 -4 55 -11 10 -20 29 -20 42 0 21 2 22 21 11 11 -7 27 -28
34 -45 15 -35 32 -42 41 -18 4 8 14 15 24 15 15 0 19 8 18 40 0 41 -2 43 -53
41 -16 -1 -36 3 -44 8 -11 7 -9 11 8 21 12 6 32 11 44 10 41 -4 45 0 45 40 1
33 -3 40 -19 40 -10 0 -19 5 -19 10 0 6 -9 10 -19 10 -13 0 -21 -9 -26 -29 -3
-16 -16 -33 -30 -39 -23 -11 -25 -9 -25 12 0 12 9 31 20 41 11 10 20 26 20 37
0 11 -7 18 -20 18 -11 0 -20 5 -20 10 0 6 -9 10 -20 10 -11 0 -20 -4 -20 -10z"/>
</g>
</svg>
