<?xml version="1.0" standalone="no"?>
<!DOCTYPE svg PUBLIC "-//W3C//DTD SVG 20010904//EN"
 "http://www.w3.org/TR/2001/REC-SVG-20010904/DTD/svg10.dtd">
<svg version="1.0" xmlns="http://www.w3.org/2000/svg"
 width="24.000000pt" height="24.000000pt" viewBox="0 0 24.000000 24.000000"
 preserveAspectRatio="xMidYMid meet">
<metadata>
Created by potrace 1.16, written by Peter Selinger 2001-2019
</metadata>
<g transform="translate(0.000000,24.000000) scale(0.016000,-0.016000)"
fill="#000000" stroke="none">
<path d="M720 1161 c-44 -14 -87 -40 -121 -73 -30 -30 -37 -33 -88 -30 -129 7
-241 -79 -257 -199 -5 -41 -11 -49 -34 -57 -42 -15 -96 -68 -121 -118 -50
-105 -13 -253 79 -319 l44 -30 475 -3 475 -3 53 25 c188 86 235 334 92 484
-41 43 -77 62 -156 82 -59 15 -64 18 -76 53 -31 89 -107 163 -195 187 -41 11
-134 12 -170 1z m170 -116 c65 -33 110 -114 110 -196 l0 -36 83 1 c75 1 87 -2
126 -27 43 -29 91 -108 91 -152 0 -79 -71 -173 -145 -194 -26 -7 -181 -11
-453 -11 -475 0 -469 -1 -504 78 -47 106 25 212 142 212 33 0 33 -1 20 55 -21
90 40 175 126 175 25 0 62 -9 84 -20 l38 -20 25 43 c62 105 162 141 257 92z"/>
</g>
</svg>
