<?xml version="1.0" standalone="no"?>
<!DOCTYPE svg PUBLIC "-//W3C//DTD SVG 20010904//EN"
 "http://www.w3.org/TR/2001/REC-SVG-20010904/DTD/svg10.dtd">
<svg version="1.0" xmlns="http://www.w3.org/2000/svg"
 width="24.000000pt" height="24.000000pt" viewBox="0 0 24.000000 24.000000"
 preserveAspectRatio="xMidYMid meet">
<metadata>
Created by potrace 1.16, written by Peter Selinger 2001-2019
</metadata>
<g transform="translate(0.000000,24.000000) scale(0.016000,-0.016000)"
fill="#000000" stroke="none">
<path d="M818 1231 l-3 -122 -69 97 c-39 53 -71 93 -73 88 -2 -5 13 -56 32
-114 19 -57 34 -105 32 -106 -1 -1 -44 29 -96 67 -52 38 -96 67 -99 65 -2 -3
28 -48 67 -100 39 -53 70 -96 68 -96 -1 0 -51 16 -111 35 -60 19 -111 33 -113
31 -4 -4 19 -21 146 -114 l44 -31 -124 -3 -124 -3 110 -36 110 -36 -30 -15
c-17 -8 -61 -25 -100 -38 -38 -12 -74 -26 -80 -30 -5 -4 -25 -11 -43 -15 -64
-13 -141 -107 -142 -172 0 -15 -13 -29 -42 -45 -110 -60 -140 -218 -60 -316
58 -73 51 -72 487 -72 389 0 390 0 441 24 59 27 107 82 129 145 29 85 15 163
-41 236 l-35 46 76 -57 c42 -31 78 -54 81 -51 3 3 -26 48 -65 100 l-70 95 115
-38 c63 -21 114 -35 114 -30 0 5 -40 37 -89 72 l-90 63 115 3 c63 1 114 6 114
10 0 4 -51 24 -112 43 l-113 35 115 39 115 40 -120 5 -120 5 90 64 c50 36 92
66 94 68 2 2 2 5 -1 8 -2 3 -51 -11 -108 -30 -57 -19 -105 -33 -108 -31 -2 3
16 31 40 63 67 88 91 124 86 129 -3 2 -34 -17 -69 -44 -35 -26 -78 -58 -96
-70 l-32 -23 39 116 c21 63 35 115 31 115 -3 0 -38 -44 -76 -97 l-70 -98 -5
125 -5 125 -34 -113 c-19 -62 -37 -109 -42 -105 -4 4 -21 53 -39 108 -17 55
-33 102 -35 104 -3 2 -6 -51 -7 -118z m179 -196 c89 -45 135 -142 112 -238
-16 -69 -92 -147 -141 -147 -31 0 -35 3 -47 45 -24 81 -133 165 -213 165 -24
0 -23 30 1 78 57 111 178 152 288 97z m-241 -286 c54 -26 84 -73 91 -143 l6
-53 61 4 c73 6 111 -9 151 -61 53 -69 38 -170 -33 -224 l-35 -27 -380 -3
c-421 -3 -409 -5 -441 63 -35 74 14 158 99 171 l42 6 -1 64 c-1 55 2 67 24 89
46 45 78 48 170 12 10 -4 25 9 45 41 50 78 122 100 201 61z"/>
</g>
</svg>
