<?xml version="1.0" standalone="no"?>
<!DOCTYPE svg PUBLIC "-//W3C//DTD SVG 20010904//EN"
 "http://www.w3.org/TR/2001/REC-SVG-20010904/DTD/svg10.dtd">
<svg version="1.0" xmlns="http://www.w3.org/2000/svg"
 width="24.000000pt" height="24.000000pt" viewBox="0 0 24.000000 24.000000"
 preserveAspectRatio="xMidYMid meet">
<metadata>
Created by potrace 1.16, written by Peter Selinger 2001-2019
</metadata>
<g transform="translate(0.000000,24.000000) scale(0.016000,-0.016000)"
fill="#000000" stroke="none">
<path d="M628 1254 l-3 -97 -55 77 c-30 42 -58 76 -62 76 -3 0 6 -39 23 -87
16 -48 29 -91 29 -95 0 -5 -26 11 -57 35 -32 24 -71 52 -88 63 l-30 19 19 -30
c11 -16 39 -56 63 -87 24 -32 40 -58 35 -58 -4 0 -47 13 -95 29 -48 17 -87 26
-87 23 0 -4 34 -32 77 -62 l76 -55 -99 -5 c-109 -6 -108 -11 13 -46 32 -9 62
-19 67 -22 6 -3 -33 -20 -85 -38 l-94 -32 105 -2 c85 0 102 -3 89 -13 -9 -7
-47 -34 -85 -61 -38 -27 -64 -51 -59 -53 6 -2 50 10 98 26 l88 30 -23 -32
c-12 -18 -37 -52 -55 -76 -18 -24 -33 -48 -33 -53 0 -5 27 10 60 34 111 79
101 74 94 41 -5 -27 -3 -30 34 -41 22 -7 45 -19 52 -27 21 -26 28 -17 27 36
-2 45 1 54 31 80 36 32 72 37 112 14 34 -19 33 -20 54 19 20 38 81 76 122 76
69 0 134 -73 134 -148 0 -26 4 -41 10 -37 21 13 111 7 136 -10 61 -40 82 -129
44 -190 -35 -56 -68 -65 -244 -65 -86 0 -156 -2 -156 -4 0 -2 7 -20 15 -40
l15 -36 141 0 c161 0 203 9 258 57 133 113 65 351 -105 371 -36 4 -43 8 -48
31 -14 67 -61 112 -147 141 l-48 16 72 25 72 24 -104 3 -104 3 69 50 c38 28
76 54 84 59 8 5 12 11 9 14 -3 3 -45 -8 -94 -24 -49 -16 -90 -29 -91 -27 -2 2
21 37 51 78 30 41 55 78 55 83 0 4 -15 -3 -32 -16 -18 -14 -56 -42 -85 -62
l-52 -37 30 88 c16 48 28 92 26 98 -2 5 -26 -21 -53 -59 -27 -38 -54 -76 -61
-85 -10 -13 -13 4 -13 89 l-2 105 -32 -94 c-18 -52 -35 -91 -38 -85 -3 5 -16
44 -28 87 -13 43 -27 80 -31 83 -5 2 -10 -39 -11 -92z"/>
<path d="M465 621 c-22 -9 -75 -59 -75 -71 0 -4 -29 -5 -63 -3 -60 5 -66 4
-97 -24 -27 -24 -33 -38 -38 -81 -4 -48 -7 -52 -38 -62 -51 -17 -84 -63 -84
-115 0 -59 16 -91 55 -110 28 -12 84 -15 341 -15 287 0 310 1 349 20 75 36
107 136 69 216 -24 50 -91 87 -149 82 -42 -3 -45 -2 -45 22 -1 43 -37 108 -72
130 -34 21 -114 26 -153 11z"/>
</g>
</svg>
