<?xml version="1.0" standalone="no"?>
<!DOCTYPE svg PUBLIC "-//W3C//DTD SVG 20010904//EN"
 "http://www.w3.org/TR/2001/REC-SVG-20010904/DTD/svg10.dtd">
<svg version="1.0" xmlns="http://www.w3.org/2000/svg"
 width="24.000000pt" height="24.000000pt" viewBox="0 0 24.000000 24.000000"
 preserveAspectRatio="xMidYMid meet">
<metadata>
Created by potrace 1.16, written by Peter Selinger 2001-2019
</metadata>
<g transform="translate(0.000000,24.000000) scale(0.016000,-0.016000)"
fill="#000000" stroke="none">
<path d="M865 1170 c-22 -11 -49 -30 -60 -43 -17 -18 -28 -22 -70 -19 -57 3
-108 -18 -137 -58 -24 -33 -35 -99 -19 -110 8 -4 -3 -10 -26 -13 -24 -4 -55
-20 -80 -42 -36 -30 -48 -35 -94 -35 -71 0 -130 -35 -158 -93 -12 -24 -21 -53
-21 -64 0 -13 -10 -25 -29 -33 -121 -50 -135 -253 -22 -328 l35 -23 366 3 367
3 41 29 c54 37 81 82 95 156 l12 60 68 0 c97 0 150 16 201 61 118 104 94 294
-47 364 -28 14 -63 25 -78 25 -21 0 -28 6 -34 28 -29 120 -192 189 -310 132z
m172 -80 c38 -23 61 -64 69 -124 l6 -44 52 5 c67 6 113 -18 145 -78 29 -54 24
-102 -16 -150 -37 -43 -80 -59 -163 -59 l-70 0 0 -37 -1 -38 -13 38 c-29 80
-110 147 -178 147 -22 0 -31 9 -55 58 -31 62 -104 122 -148 122 -22 0 -23 3
-15 31 5 17 14 37 21 45 18 22 73 28 107 10 17 -9 33 -16 36 -16 2 0 14 16 27
36 44 71 130 95 196 54z m-344 -262 c37 -27 57 -68 57 -122 l0 -44 58 5 c88 8
152 -36 168 -115 9 -43 -27 -117 -68 -142 -31 -19 -49 -20 -366 -20 l-334 0
-29 29 c-33 33 -38 75 -14 120 15 30 69 61 104 61 19 0 21 4 15 40 -16 99 68
161 156 115 28 -15 30 -14 44 12 44 86 136 113 209 61z"/>
</g>
</svg>
