<?xml version="1.0" standalone="no"?>
<!DOCTYPE svg PUBLIC "-//W3C//DTD SVG 20010904//EN"
 "http://www.w3.org/TR/2001/REC-SVG-20010904/DTD/svg10.dtd">
<svg version="1.0" xmlns="http://www.w3.org/2000/svg"
 width="24.000000pt" height="24.000000pt" viewBox="0 0 24.000000 24.000000"
 preserveAspectRatio="xMidYMid meet">
<metadata>
Created by potrace 1.16, written by Peter Selinger 2001-2019
</metadata>
<g transform="translate(0.000000,24.000000) scale(0.016000,-0.016000)"
fill="#000000" stroke="none">
<path d="M475 1341 c-101 -46 -141 -115 -133 -226 l6 -65 -30 0 c-76 0 -152
-75 -164 -163 -13 -90 47 -182 133 -206 24 -7 188 -11 434 -11 323 0 405 3
446 15 110 33 179 148 152 257 -16 68 -74 132 -140 155 -37 13 -49 23 -49 38
-1 34 -36 100 -68 127 -69 58 -163 62 -237 10 l-43 -30 -12 22 c-46 82 -198
122 -295 77z"/>
<path d="M370 584 c-52 -83 -32 -154 45 -154 76 0 99 79 47 155 -39 56 -56 56
-92 -1z"/>
<path d="M1117 528 c-55 -74 -63 -130 -24 -166 67 -63 170 14 134 100 -15 36
-64 98 -77 98 -5 0 -20 -15 -33 -32z"/>
<path d="M728 393 c-36 -41 -78 -119 -78 -146 0 -62 44 -106 107 -107 33 0 48
6 72 31 50 49 37 122 -34 208 -30 35 -45 38 -67 14z"/>
</g>
</svg>
