<?xml version="1.0" standalone="no"?>
<!DOCTYPE svg PUBLIC "-//W3C//DTD SVG 20010904//EN"
 "http://www.w3.org/TR/2001/REC-SVG-20010904/DTD/svg10.dtd">
<svg version="1.0" xmlns="http://www.w3.org/2000/svg"
 width="24.000000pt" height="24.000000pt" viewBox="0 0 24.000000 24.000000"
 preserveAspectRatio="xMidYMid meet">
<metadata>
Created by potrace 1.16, written by Peter Selinger 2001-2019
</metadata>
<g transform="translate(0.000000,24.000000) scale(0.016000,-0.016000)"
fill="#000000" stroke="none">
<path d="M685 1376 c-27 -13 -63 -37 -78 -53 -25 -27 -32 -30 -78 -25 -117 11
-221 -70 -243 -191 -6 -30 -14 -41 -44 -56 -79 -41 -116 -107 -116 -206 0
-109 53 -189 142 -215 25 -8 178 -10 467 -8 419 3 431 4 470 25 186 100 200
364 26 481 -25 17 -64 34 -86 37 -67 11 -72 14 -84 56 -16 54 -84 126 -146
155 -69 33 -161 33 -230 0z m193 -90 c62 -32 102 -104 102 -181 0 -39 3 -46
18 -41 87 24 149 11 203 -43 86 -86 66 -226 -41 -281 -37 -19 -58 -20 -454
-20 l-414 0 -30 30 c-81 81 -33 211 83 228 27 4 48 10 47 15 0 4 -4 27 -7 51
-17 111 82 185 187 138 l45 -20 34 51 c19 28 50 59 69 69 41 22 120 24 158 4z"/>
<path d="M328 573 c-19 -5 -24 -38 -8 -48 6 -3 10 -15 10 -26 0 -25 -18 -15
-30 17 -9 23 -40 34 -40 14 0 -5 -7 -10 -15 -10 -10 0 -15 -10 -15 -30 0 -28
3 -30 34 -30 19 0 38 -4 41 -10 6 -10 0 -12 -45 -14 -20 -1 -25 -7 -27 -31 -2
-24 3 -33 24 -42 30 -14 43 -9 43 17 0 10 7 20 15 24 18 7 20 -16 3 -44 -11
-16 -9 -22 7 -34 23 -18 45 -20 45 -6 0 6 7 10 15 10 8 0 15 6 15 14 0 7 -7
19 -15 26 -17 14 -20 40 -4 40 6 0 16 -13 22 -30 11 -28 37 -42 37 -20 0 6 6
10 14 10 9 0 14 12 14 36 0 33 -2 36 -26 31 -14 -3 -32 -3 -39 0 -23 9 -3 23
33 23 31 0 34 2 34 30 0 20 -5 30 -15 30 -8 0 -15 5 -15 10 0 21 -28 9 -34
-14 -7 -28 -36 -44 -36 -19 0 9 8 25 17 36 17 18 17 19 -2 33 -19 14 -27 15
-57 7z"/>
<path d="M1180 560 c0 -5 -7 -10 -15 -10 -8 0 -15 -8 -15 -19 0 -10 7 -24 15
-31 8 -7 15 -21 15 -31 0 -16 -3 -17 -19 -7 -11 7 -22 22 -26 35 -5 23 -45 34
-45 13 0 -5 -6 -10 -14 -10 -9 0 -14 -12 -14 -35 0 -34 2 -35 32 -33 17 1 37
-2 44 -6 21 -13 2 -26 -38 -26 -37 0 -38 -1 -38 -35 0 -28 4 -35 19 -35 10 0
19 -4 19 -10 0 -21 30 -9 36 15 8 33 44 55 44 27 0 -11 -7 -25 -15 -32 -19
-16 -20 -50 -1 -50 8 0 16 -5 18 -12 3 -8 12 -8 36 3 34 15 41 39 17 59 -8 7
-15 21 -15 32 0 18 2 19 16 7 9 -7 20 -23 25 -36 8 -22 39 -33 39 -14 0 5 9
11 20 14 17 4 20 10 14 34 -10 40 -13 45 -35 38 -10 -4 -29 -3 -41 1 -20 6
-21 7 -2 17 10 6 32 11 48 11 25 1 29 5 30 30 1 17 -4 30 -14 34 -8 3 -18 10
-21 15 -11 16 -39 -1 -39 -23 0 -11 -2 -20 -4 -20 -2 0 -11 -3 -20 -6 -21 -8
-22 29 -1 46 22 18 18 33 -12 48 -33 15 -43 15 -43 2z"/>
<path d="M694 475 c-4 -8 -15 -15 -25 -15 -25 0 -25 -32 1 -55 18 -16 29 -65
14 -65 -18 0 -43 24 -52 50 -8 20 -18 30 -31 30 -12 0 -21 -4 -21 -10 0 -5 -9
-10 -19 -10 -16 0 -19 -7 -19 -46 l0 -46 37 5 c21 2 48 -1 61 -8 l23 -13 -21
-11 c-12 -7 -39 -11 -59 -9 l-38 3 -1 -42 c-2 -39 0 -44 31 -59 40 -19 51 -14
60 25 3 16 16 33 30 39 23 11 25 9 25 -12 0 -12 -9 -31 -20 -41 -11 -10 -20
-29 -20 -43 0 -19 4 -23 20 -19 13 3 20 0 20 -9 0 -8 9 -14 20 -14 11 0 20 6
20 14 0 9 7 12 19 9 30 -8 33 23 6 56 -14 16 -25 38 -25 50 0 18 3 19 26 9 16
-7 27 -23 31 -41 7 -33 31 -47 47 -26 6 8 18 14 26 14 11 0 15 12 15 45 l0 45
-40 -3 c-22 -1 -47 2 -55 8 -26 18 16 41 61 34 l37 -6 0 46 c0 39 -3 46 -19
46 -10 0 -19 5 -19 10 0 6 -9 10 -20 10 -13 0 -22 -9 -26 -25 -6 -24 -38 -55
-56 -55 -18 0 -6 46 18 71 28 29 25 49 -6 49 -10 0 -20 7 -24 15 -3 8 -10 15
-16 15 -6 0 -13 -7 -16 -15z"/>
</g>
</svg>
