<?xml version="1.0" standalone="no"?>
<!DOCTYPE svg PUBLIC "-//W3C//DTD SVG 20010904//EN"
 "http://www.w3.org/TR/2001/REC-SVG-20010904/DTD/svg10.dtd">
<svg version="1.0" xmlns="http://www.w3.org/2000/svg"
 width="24.000000pt" height="24.000000pt" viewBox="0 0 24.000000 24.000000"
 preserveAspectRatio="xMidYMid meet">
<metadata>
Created by potrace 1.16, written by Peter Selinger 2001-2019
</metadata>
<g transform="translate(0.000000,24.000000) scale(0.016000,-0.016000)"
fill="#000000" stroke="none">
<path d="M556 1371 c-3 -5 11 -77 31 -161 l36 -151 26 6 c14 4 28 8 30 11 2 2
-16 71 -40 154 -34 117 -48 150 -61 150 -9 0 -19 -4 -22 -9z"/>
<path d="M842 1240 c-23 -76 -42 -146 -42 -154 0 -12 48 -33 55 -24 7 9 72
304 68 311 -2 4 -12 7 -22 7 -14 0 -26 -29 -59 -140z"/>
<path d="M274 1205 c-6 -14 81 -119 173 -208 l39 -37 22 23 22 23 -114 107
c-63 59 -119 107 -126 107 -6 0 -13 -7 -16 -15z"/>
<path d="M1061 1112 l-113 -107 24 -23 25 -23 108 116 c90 96 105 118 95 130
-7 8 -15 15 -19 15 -3 0 -57 -49 -120 -108z"/>
<path d="M677 1000 c-56 -14 -90 -34 -129 -78 -96 -106 -87 -268 21 -365 40
-36 119 -67 171 -67 55 0 132 31 175 71 132 122 93 356 -70 425 -44 18 -123
25 -168 14z"/>
<path d="M117 934 c-4 -4 -7 -15 -7 -24 0 -12 34 -26 140 -58 76 -23 146 -42
154 -42 12 0 33 48 24 55 -2 1 -66 17 -143 35 -77 18 -145 34 -151 37 -5 2
-13 0 -17 -3z"/>
<path d="M1200 903 c-80 -20 -146 -37 -148 -38 -8 -7 11 -55 22 -55 11 0 288
80 294 86 6 5 -9 44 -16 43 -4 -1 -72 -17 -152 -36z"/>
<path d="M248 647 c-106 -32 -138 -46 -138 -59 0 -9 4 -19 8 -22 7 -4 301 61
310 69 10 9 -13 55 -27 54 -9 0 -78 -20 -153 -42z"/>
<path d="M1056 664 c-4 -15 -6 -28 -4 -29 8 -8 302 -73 310 -69 4 3 8 13 8 22
0 13 -33 26 -148 60 -81 24 -150 43 -153 42 -4 0 -10 -12 -13 -26z"/>
<path d="M379 430 c-57 -62 -104 -119 -104 -128 0 -38 36 -16 143 86 l114 107
-25 23 -24 23 -104 -111z"/>
<path d="M972 517 l-22 -23 73 -70 c158 -152 155 -150 173 -132 16 15 9 25
-91 132 -60 64 -109 116 -110 116 -1 0 -11 -10 -23 -23z"/>
<path d="M591 308 c-40 -173 -41 -182 -16 -186 18 -2 25 15 64 148 24 82 42
152 40 154 -2 3 -16 7 -30 11 l-26 7 -32 -134z"/>
<path d="M818 433 c-25 -6 -23 -15 24 -174 37 -124 44 -140 62 -137 12 2 21 8
21 13 0 34 -71 305 -79 304 -6 -1 -19 -3 -28 -6z"/>
</g>
</svg>
