<?xml version="1.0" standalone="no"?>
<!DOCTYPE svg PUBLIC "-//W3C//DTD SVG 20010904//EN"
 "http://www.w3.org/TR/2001/REC-SVG-20010904/DTD/svg10.dtd">
<svg version="1.0" xmlns="http://www.w3.org/2000/svg"
 width="24.000000pt" height="24.000000pt" viewBox="0 0 24.000000 24.000000"
 preserveAspectRatio="xMidYMid meet">
<metadata>
Created by potrace 1.16, written by Peter Selinger 2001-2019
</metadata>
<g transform="translate(0.000000,24.000000) scale(0.016000,-0.016000)"
fill="#000000" stroke="none">
<path d="M971 1069 c-24 -4 -58 -17 -77 -28 -31 -19 -36 -19 -71 -5 -68 29
-169 -7 -188 -66 -4 -12 -15 -20 -28 -20 -27 0 -61 -23 -100 -67 -26 -30 -35
-33 -82 -33 -42 0 -69 -8 -131 -40 -72 -36 -181 -117 -171 -126 2 -2 26 6 53
18 34 15 70 22 116 22 l68 1 45 -52 c75 -86 149 -121 217 -103 34 10 40 8 83
-24 79 -60 202 -69 300 -22 31 16 59 34 62 42 4 11 9 11 26 2 38 -20 137 -15
184 10 92 48 129 153 84 240 -21 40 -77 92 -100 92 -6 0 -20 19 -30 43 -39 90
-146 138 -260 116z"/>
<path d="M262 1027 c-65 -20 -131 -113 -132 -184 l0 -32 49 49 c65 65 111 74
197 39 91 -37 145 70 61 121 -36 22 -118 26 -175 7z"/>
<path d="M234 669 c-31 -9 -72 -45 -62 -55 3 -3 21 4 39 15 62 38 87 23 100
-61 10 -65 52 -118 106 -137 37 -13 44 -13 67 2 46 30 34 88 -25 117 -21 11
-55 40 -75 65 -34 40 -78 67 -108 64 -6 0 -25 -5 -42 -10z"/>
</g>
</svg>
