<?xml version="1.0" encoding="UTF-8" standalone="no"?>
<svg
   xmlns:dc="http://purl.org/dc/elements/1.1/"
   xmlns:cc="http://creativecommons.org/ns#"
   xmlns:rdf="http://www.w3.org/1999/02/22-rdf-syntax-ns#"
   xmlns:svg="http://www.w3.org/2000/svg"
   xmlns="http://www.w3.org/2000/svg"
   xmlns:sodipodi="http://sodipodi.sourceforge.net/DTD/sodipodi-0.dtd"
   xmlns:inkscape="http://www.inkscape.org/namespaces/inkscape"
   version="1.1"
   id="Layer_1"
   x="0px"
   y="0px"
   viewBox="0 0 240 78.236508"
   xml:space="preserve"
   sodipodi:docname="weatherflow.svg"
   width="200"
   height="65.19709"
   inkscape:version="0.92.3 (2405546, 2018-03-11)"><metadata
   id="metadata153"><rdf:RDF><cc:Work
       rdf:about=""><dc:format>image/svg+xml</dc:format><dc:type
         rdf:resource="http://purl.org/dc/dcmitype/StillImage" /><dc:title></dc:title></cc:Work></rdf:RDF></metadata><defs
   id="defs151" /><sodipodi:namedview
   pagecolor="#ffffff"
   bordercolor="#666666"
   borderopacity="1"
   objecttolerance="10"
   gridtolerance="10"
   guidetolerance="10"
   inkscape:pageopacity="0"
   inkscape:pageshadow="2"
   inkscape:window-width="1321"
   inkscape:window-height="710"
   id="namedview149"
   showgrid="false"
   fit-margin-top="0"
   fit-margin-left="0"
   fit-margin-right="0"
   fit-margin-bottom="0"
   inkscape:zoom="1.3155765"
   inkscape:cx="124.92408"
   inkscape:cy="17.367869"
   inkscape:window-x="0"
   inkscape:window-y="0"
   inkscape:window-maximized="0"
   inkscape:current-layer="Layer_1" />
<style
   type="text/css"
   id="style2">
	.st0{display:none;}
	.st1{display:inline;fill:#0055B8;}
	.st2{display:inline;}
	.st3{fill:#0055B8;}
</style>
<g
   id="g146"
   transform="matrix(1.3858759,0,0,1.3858759,-2.1840247,-25.394663)">
	<g
   id="g26">
		<path
   d="m 1.5906084,52.858269 c 0.070697,-0.44455 0.4086032,-0.830387 1.0173142,-1.159905 0.6063144,-0.328319 1.2090342,-0.492481 1.8057628,-0.492481 0.7405186,0 1.1383371,0.275597 1.1946549,0.826794 L 7.7580009,69.24913 12.130415,58.194077 c 0.306752,-0.762085 1.024504,-1.143132 2.155652,-1.143132 1.110777,0 1.699118,0.381047 1.763823,1.143132 l 0.871129,11.055053 7.602895,-17.216453 c 0.230065,-0.551197 0.716553,-0.826794 1.457072,-0.826794 0.596729,0 1.145526,0.164162 1.64999,0.492481 0.502067,0.329518 0.71895,0.715355 0.648254,1.159905 -0.01917,0.127014 -0.05991,0.254028 -0.121023,0.381046 l -9.274456,19.980816 c -0.455334,0.932236 -1.404349,1.398361 -2.843447,1.398361 -0.617099,0 -1.153914,-0.122223 -1.608051,-0.366669 -0.455335,-0.242042 -0.699778,-0.585945 -0.732131,-1.031692 l -0.617098,-8.577072 -3.3622894,8.577072 c -0.1737471,0.445747 -0.5272303,0.78965 -1.0592537,1.031692 -0.5320225,0.244446 -1.1071825,0.366669 -1.7242813,0.366669 -0.6374688,0 -1.1838708,-0.122223 -1.6380076,-0.366669 C 4.8438569,74.009781 4.5898281,73.665878 4.5371051,73.220131 L 1.5918065,53.239315 c -0.02037,-0.127018 -0.021568,-0.254032 -0.0012,-0.381046 z"
   id="path4"
   inkscape:connector-curvature="0" />
		<path
   d="m 25.819221,68.200661 0.427777,-2.699654 c 0.275596,-1.735069 1.169491,-3.229286 2.684067,-4.479061 1.513403,-1.249775 3.207729,-1.874062 5.079395,-1.874062 1.748245,0 3.154991,0.570366 4.219036,1.707505 1.064049,1.13834 1.460667,2.569049 1.187466,4.292133 -0.09945,0.629082 -0.260018,1.147926 -0.479298,1.556526 -0.218082,0.409798 -0.50087,0.698578 -0.845966,0.865135 -0.345097,0.167755 -0.655442,0.273201 -0.92984,0.31514 -0.273201,0.04194 -0.626686,0.06231 -1.058056,0.06231 h -6.263253 l -0.07549,0.476906 c -0.143789,0.911865 0.0671,1.647591 0.637471,2.207176 0.569168,0.561982 1.398357,0.84237 2.488763,0.84237 0.78246,0 1.584088,-0.20131 2.410881,-0.602723 0.824395,-0.40261 1.349228,-0.60392 1.575699,-0.60392 0.43137,0 0.758492,0.206101 0.982563,0.618302 0.221676,0.413398 0.30196,0.811218 0.242047,1.19226 -0.09346,0.593132 -0.705769,1.180275 -1.836918,1.762627 -1.131146,0.583542 -2.467194,0.874718 -4.01054,0.874718 -2.202385,0 -3.900305,-0.599121 -5.099753,-1.796173 -1.199449,-1.195854 -1.643999,-2.76796 -1.33605,-4.717514 z m 4.403571,-2.667305 h 4.504221 c 0.329517,0 0.569168,-0.05392 0.720146,-0.162956 0.150982,-0.109047 0.251633,-0.322327 0.30196,-0.638672 0.109043,-0.691391 -0.06351,-1.254567 -0.520039,-1.690731 -0.454136,-0.434964 -1.062847,-0.653046 -1.823738,-0.653046 -0.720146,0 -1.382778,0.213287 -1.9843,0.63747 -0.601523,0.426575 -0.957404,0.984963 -1.066443,1.676354 z"
   id="path6"
   inkscape:connector-curvature="0" />
		<path
   d="m 42.138187,70.357513 c 0.263615,-1.666763 1.067643,-2.841049 2.408482,-3.519264 1.342041,-0.679405 3.175365,-1.019706 5.499969,-1.019706 h 1.265351 l 0.0671,-0.42418 c 0.128212,-0.806411 0.01797,-1.508598 -0.329521,-2.107723 -0.347492,-0.597927 -0.983761,-0.898689 -1.90881,-0.898689 -0.926246,0 -1.747051,0.179737 -2.462406,0.540413 -0.714157,0.359474 -1.123959,0.540409 -1.227005,0.540409 -0.411003,0 -0.70697,-0.21209 -0.886707,-0.636269 -0.179737,-0.422985 -0.228867,-0.890301 -0.148583,-1.397159 0.09706,-0.614704 0.710564,-1.147927 1.844109,-1.604458 1.131145,-0.455334 2.282665,-0.683003 3.454551,-0.683003 2.241929,0 3.815228,0.587143 4.719906,1.762627 0.904683,1.17548 1.215027,2.652923 0.933438,4.431125 l -1.232998,7.783837 c -0.05632,0.359474 -0.291176,0.666222 -0.700977,0.921448 -0.411,0.254028 -0.893894,0.38105 -1.449883,0.38105 -0.514049,0 -0.919056,-0.135407 -1.215023,-0.40741 -0.295971,-0.272003 -0.413399,-0.600319 -0.353485,-0.984962 l 0.155773,-0.984963 c -1.700317,1.77581 -3.40303,2.663712 -5.111736,2.663712 -1.171886,0 -2.074169,-0.372658 -2.708042,-1.114373 -0.632679,-0.741714 -0.837578,-1.82254 -0.613507,-3.242462 z m 4.062069,-0.511657 c -0.08627,0.542808 -0.0012,0.94902 0.255226,1.221023 0.254029,0.270798 0.629082,0.406205 1.122761,0.406205 0.657841,0 1.343239,-0.301957 2.055001,-0.903473 0.712955,-0.60273 1.127552,-1.265358 1.241386,-1.990303 l 0.100651,-0.632676 h -0.462525 c -1.255764,0 -2.257503,0.127015 -3.006408,0.377449 -0.750103,0.250435 -1.18507,0.758492 -1.306092,1.521775 z"
   id="path8"
   inkscape:connector-curvature="0" />
		<path
   d="m 57.974258,69.341392 2.410881,-15.227356 c 0.05632,-0.354682 0.309147,-0.653045 0.75969,-0.895092 0.448147,-0.23965 0.920257,-0.360675 1.413936,-0.360675 0.53442,0 0.984959,0.117427 1.34803,0.351089 0.36427,0.234856 0.518841,0.524834 0.463726,0.871128 l -0.832786,5.259117 h 3.641479 c 0.307953,0 0.528427,0.160565 0.663834,0.482895 0.134201,0.319931 0.166557,0.69978 0.09825,1.135941 -0.0695,0.436165 -0.22287,0.816009 -0.458923,1.138336 -0.236061,0.321133 -0.509262,0.481697 -0.81601,0.481697 h -3.64268 L 61.975216,69.2024 c -0.09227,0.585945 -0.02996,0.999336 0.189323,1.241387 0.21928,0.242042 0.647057,0.361869 1.284523,0.361869 h 1.204243 c 0.534416,0 0.922653,0.177346 1.165893,0.532021 0.240853,0.354683 0.323533,0.775269 0.246842,1.262962 -0.08028,0.509255 -0.298363,0.940621 -0.651848,1.295304 -0.355881,0.353485 -0.80043,0.532028 -1.334846,0.532028 h -1.204243 c -3.805641,0 -5.438858,-1.695526 -4.900845,-5.086579 z"
   id="path10"
   inkscape:connector-curvature="0" />
		<path
   d="m 68.264831,73.126671 3.371872,-21.285717 c 0.05991,-0.381043 0.288781,-0.687794 0.685402,-0.921452 0.396622,-0.231262 0.893891,-0.34869 1.490624,-0.34869 0.555984,0 1.008926,0.117428 1.363609,0.349888 0.354683,0.23246 0.50087,0.540409 0.440956,0.920254 l -1.54335,9.741775 c 0.415794,-0.683002 1.001739,-1.259361 1.75544,-1.730274 0.752502,-0.469715 1.592476,-0.704571 2.517524,-0.704571 1.419922,0 2.558259,0.635071 3.416207,1.906414 0.857948,1.270146 1.147926,2.784733 0.869934,4.541367 l -1.193459,7.529808 c -0.06351,0.402611 -0.313942,0.720146 -0.751304,0.952606 -0.438561,0.233658 -0.925049,0.349892 -1.459465,0.349892 -0.515251,0 -0.952614,-0.116234 -1.318077,-0.348694 -0.364266,-0.23246 -0.514054,-0.548798 -0.450547,-0.951408 l 1.188668,-7.50824 c 0.11383,-0.716553 -0.05032,-1.371994 -0.49128,-1.962731 -0.440956,-0.591934 -1.02211,-0.887905 -1.742256,-0.887905 -0.678215,0 -1.31089,0.263619 -1.898033,0.793244 -0.588341,0.527233 -0.949013,1.213825 -1.083214,2.057392 l -1.188667,7.50824 c -0.05032,0.317535 -0.297165,0.613502 -0.741715,0.887901 -0.444549,0.274399 -0.935837,0.412201 -1.470253,0.412201 -0.554787,0 -1.001739,-0.133011 -1.339645,-0.396622 -0.339104,-0.264816 -0.481697,-0.565575 -0.428971,-0.904678 z"
   id="path12"
   inkscape:connector-curvature="0" />
		<path
   d="m 84.749153,68.200661 0.42778,-2.699654 c 0.275597,-1.735069 1.169487,-3.229286 2.684075,-4.479061 1.513389,-1.249775 3.207718,-1.874062 5.079384,-1.874062 1.748245,0 3.154991,0.570366 4.219039,1.707505 1.064042,1.13834 1.460663,2.569049 1.187462,4.292133 -0.09945,0.629082 -0.260017,1.147926 -0.479301,1.556526 -0.218079,0.409798 -0.500862,0.698578 -0.845963,0.865135 -0.345092,0.167755 -0.655441,0.273201 -0.92984,0.31514 -0.273201,0.04194 -0.626686,0.06231 -1.058052,0.06231 h -6.263252 l -0.07549,0.476906 c -0.143791,0.911865 0.0671,1.647591 0.637466,2.207176 0.569168,0.561982 1.398362,0.84237 2.48877,0.84237 0.782455,0 1.584083,-0.20131 2.410873,-0.602723 0.824402,-0.40261 1.349236,-0.60392 1.575699,-0.60392 0.431374,0 0.758499,0.206101 0.982567,0.618302 0.22168,0.413398 0.301964,0.811218 0.24205,1.19226 -0.09347,0.593132 -0.705772,1.180275 -1.836922,1.762627 -1.131149,0.583542 -2.467193,0.874718 -4.010543,0.874718 -2.202378,0 -3.900299,-0.599121 -5.099747,-1.796173 -1.199448,-1.195854 -1.643997,-2.76796 -1.336052,-4.717514 z m 4.403572,-2.667305 h 4.504219 c 0.329522,0 0.569168,-0.05392 0.720147,-0.162956 0.150985,-0.109047 0.251632,-0.322327 0.301963,-0.638672 0.10904,-0.691391 -0.06351,-1.254567 -0.520042,-1.690731 -0.45414,-0.434964 -1.062851,-0.653046 -1.823738,-0.653046 -0.720146,0 -1.382782,0.213287 -1.984299,0.63747 -0.601524,0.426575 -0.957405,0.984963 -1.066444,1.676354 z"
   id="path14"
   inkscape:connector-curvature="0" />
		<path
   d="m 100.72302,73.125473 1.98311,-12.516922 c 0.0599,-0.381043 0.28998,-0.687798 0.68659,-0.920258 0.39543,-0.233657 0.88311,-0.34869 1.45946,-0.34869 0.51406,0 0.92147,0.11623 1.22343,0.352288 0.30315,0.233658 0.42298,0.544002 0.36187,0.928642 l -0.2073,1.315678 c 0.44695,-0.747708 1.06405,-1.399556 1.8525,-1.954346 0.78605,-0.555988 1.58169,-0.833981 2.38332,-0.833981 h 0.9574 c 0.37026,0 0.67461,0.182133 0.91666,0.545205 0.23965,0.363067 0.32353,0.780059 0.24923,1.249774 -0.0779,0.49128 -0.29596,0.917859 -0.65065,1.282128 -0.35707,0.363067 -0.71894,0.544002 -1.08921,0.544002 h -0.95739 c -0.94542,0 -1.84172,0.432572 -2.68768,1.298909 -0.84836,0.866333 -1.38158,1.996284 -1.60206,3.389846 l -0.89869,5.670121 c -0.0503,0.317535 -0.30316,0.613502 -0.75729,0.887901 -0.45534,0.274399 -0.95021,0.412201 -1.48463,0.412201 -0.55599,0 -0.99695,-0.133011 -1.32527,-0.39782 -0.32832,-0.264816 -0.46612,-0.565574 -0.4134,-0.904678 z"
   id="path16"
   inkscape:connector-curvature="0" />
		<path
   d="M 113.22077,73.125473 116.486,52.509579 c 0.0647,-0.402611 0.28878,-0.720147 0.67702,-0.953808 0.38463,-0.23246 0.816,-0.349888 1.28931,-0.349888 h 10.76747 c 0.4122,0 0.6926,0.174946 0.84238,0.524834 0.14978,0.34869 0.18692,0.768078 0.10904,1.254566 -0.0803,0.508061 -0.25643,0.943024 -0.52963,1.302498 -0.27201,0.359478 -0.60512,0.539215 -0.99575,0.539215 h -8.51596 l -1.00653,6.353119 h 4.72111 c 0.39062,0 0.66981,0.159366 0.83517,0.476906 0.16536,0.317535 0.2109,0.710559 0.13781,1.175483 -0.0671,0.424179 -0.23366,0.794438 -0.49968,1.111973 -0.26601,0.317539 -0.59552,0.476902 -0.98616,0.476902 h -4.7211 l -1.37918,8.704094 c -0.0635,0.402611 -0.31395,0.720146 -0.75131,0.952606 -0.43736,0.233658 -0.92505,0.349892 -1.45946,0.349892 -0.556,0 -1.01013,-0.116234 -1.36361,-0.349892 -0.35469,-0.23246 -0.49968,-0.549995 -0.43617,-0.952606 z"
   id="path18"
   inkscape:connector-curvature="0" />
		<path
   d="m 129.17187,73.125473 3.37667,-21.315674 c 0.0599,-0.381042 0.28879,-0.687794 0.6866,-0.921451 0.39543,-0.23246 0.8927,-0.34869 1.48942,-0.34869 0.55599,0 1.00893,0.11623 1.36481,0.34869 0.35349,0.233657 0.49966,0.540409 0.43976,0.921451 l -3.37666,21.315674 c -0.0503,0.317535 -0.29717,0.6147 -0.74172,0.889099 -0.44455,0.275597 -0.93584,0.413399 -1.47026,0.413399 -0.55479,0 -1.00174,-0.133011 -1.33964,-0.39782 -0.3391,-0.264816 -0.48169,-0.565574 -0.42898,-0.904678 z"
   id="path20"
   inkscape:connector-curvature="0" />
		<path
   d="m 137.78969,68.200661 0.41339,-2.604996 c 0.2744,-1.735066 1.1707,-3.244858 2.69127,-4.525787 1.51819,-1.28093 3.19453,-1.921994 5.02547,-1.921994 1.78898,0 3.25204,0.635071 4.38798,1.906414 1.13475,1.270146 1.56372,2.784733 1.28572,4.541367 l -0.41339,2.604996 c -0.272,1.717094 -1.18027,3.230484 -2.72362,4.542564 -1.54574,1.313286 -3.21371,1.971123 -5.00149,1.971123 -1.79019,0 -3.25086,-0.657837 -4.37841,-1.971123 -1.12995,-1.31208 -1.55772,-2.82547 -1.28692,-4.542564 z m 3.98298,-0.0096 c -0.11982,0.757294 0.0408,1.43071 0.48169,2.017853 0.44097,0.588341 1.0329,0.88311 1.77341,0.88311 0.71896,0 1.39836,-0.294769 2.03703,-0.88311 0.63868,-0.587143 1.01851,-1.260559 1.13834,-2.017853 l 0.4086,-2.584625 c 0.11383,-0.714157 -0.0563,-1.364807 -0.50806,-1.954346 -0.45294,-0.58834 -1.03888,-0.883114 -1.75782,-0.883114 -0.74053,0 -1.42473,0.289978 -2.05021,0.867535 -0.62669,0.577553 -0.99815,1.234199 -1.11438,1.969925 z"
   id="path22"
   inkscape:connector-curvature="0" />
		<path
   d="m 153.79231,60.863777 c 0.0743,-0.466118 0.42418,-0.862739 1.05327,-1.192257 0.62788,-0.327121 1.2294,-0.492481 1.80576,-0.492481 0.59674,0 0.94062,0.222874 1.03648,0.667423 l 1.65599,9.021626 3.5564,-7.846142 c 0.25163,-0.549995 0.74771,-0.825592 1.48823,-0.825592 0.7405,0 1.15032,0.275597 1.22701,0.825592 l 1.03648,7.87849 4.54976,-9.053974 c 0.23486,-0.444549 0.65065,-0.667423 1.24738,-0.667423 0.55598,0 1.0928,0.170151 1.61644,0.509255 0.52244,0.337905 0.7465,0.74052 0.67222,1.206638 -0.0371,0.233658 -0.10785,0.424179 -0.21449,0.571567 l -6.74255,12.580422 c -0.26362,0.486496 -0.8256,0.729736 -1.68953,0.729736 -0.90589,0 -1.41274,-0.24324 -1.51938,-0.729736 l -1.27974,-6.924683 -3.43657,6.892334 c -0.26482,0.509255 -0.87233,0.762085 -1.81775,0.762085 -0.84357,0 -1.31688,-0.25283 -1.42233,-0.762085 l -2.76436,-12.548073 c -0.0695,-0.210895 -0.0887,-0.412201 -0.0587,-0.602722 z"
   id="path24"
   inkscape:connector-curvature="0" />
	</g>
	<g
   id="g32">
		<path
   d="m 99.939537,25.625292 c -2.105598,-0.07373 -3.333244,1.050844 -3.616013,2.1418 -0.283043,1.091083 0.585884,0.68659 0.585884,0.68659 3.009781,-1.212036 3.353532,1.636541 3.353532,1.636541 0.7272,6.363619 -14.605874,13.393873 -14.605874,13.393873 v 0.08059 c 4.444489,-0.323128 12.141159,-3.151143 15.797504,-6.121086 3.36095,-2.73024 4.32313,-5.67623 3.45463,-8.383349 -0.72836,-2.269659 -2.66642,-3.353163 -4.969663,-3.434963"
   id="path28"
   inkscape:connector-curvature="0" />
		<path
   d="m 102.6236,21.629538 c -0.70004,-2.181731 -2.56415,-3.224234 -4.778362,-3.302269 -2.024994,-0.07149 -3.204964,1.009956 -3.477227,2.058889 -0.271995,1.049028 0.563561,0.661036 0.563561,0.661036 2.894241,-1.166073 3.224144,1.573158 3.224144,1.573158 0.699447,6.118654 -14.043823,12.878267 -14.043823,12.878267 v 0.07734 c 4.273315,-0.310696 11.674293,-3.029881 15.190254,-5.885636 3.231503,-2.624405 4.156643,-5.457624 3.321453,-8.060781"
   id="path30"
   inkscape:connector-curvature="0" />
	</g>
	<g
   id="g144">
		<g
   class="st0"
   id="g140"
   style="display:none">
			<polygon
   class="st1"
   points="-95.72274,-12.956316 -93.713997,-13.011997 -93.418213,-15.010181 -95.425446,-14.955269 "
   id="polygon34"
   style="display:inline;fill:#0055b8" />
			<polygon
   class="st1"
   points="-98.035553,-13.091031 -96.42868,-13.135422 -96.19162,-14.734738 -97.797722,-14.69108 "
   id="polygon36"
   style="display:inline;fill:#0055b8" />
			<polygon
   class="st1"
   points="-99.882446,-13.199388 -98.596992,-13.234763 -98.408096,-14.514979 -99.692787,-14.479605 "
   id="polygon38"
   style="display:inline;fill:#0055b8" />
			<polygon
   class="st1"
   points="-101.76777,-13.275416 -100.73895,-13.304009 -100.58693,-14.326818 -101.61498,-14.298225 "
   id="polygon40"
   style="display:inline;fill:#0055b8" />
			<polygon
   class="st1"
   points="-103.68094,-13.323584 -102.85831,-13.346165 -102.7379,-14.165013 -103.55902,-14.142432 "
   id="polygon42"
   style="display:inline;fill:#0055b8" />
			<polygon
   class="st1"
   points="-105.61816,-13.350674 -104.96039,-13.368746 -104.86328,-14.025019 -105.52032,-14.006947 "
   id="polygon44"
   style="display:inline;fill:#0055b8" />
			<polygon
   class="st1"
   points="-107.57496,-13.362735 -107.04813,-13.37703 -106.97137,-13.900824 -107.4967,-13.886528 "
   id="polygon46"
   style="display:inline;fill:#0055b8" />
			<polygon
   class="st1"
   points="-109.54609,-13.35969 -109.12538,-13.37098 -109.06364,-13.790963 -109.48436,-13.778902 "
   id="polygon48"
   style="display:inline;fill:#0055b8" />
			<polygon
   class="st1"
   points="-45.682667,-12.989417 -43.673195,-13.045098 -43.378178,-15.04332 -45.385414,-14.98837 "
   id="polygon50"
   style="display:inline;fill:#0055b8" />
			<polygon
   class="st1"
   points="-47.993977,-13.124131 -46.387878,-13.168561 -46.150818,-14.767839 -47.757649,-14.724219 "
   id="polygon52"
   style="display:inline;fill:#0055b8" />
			<polygon
   class="st1"
   points="-49.843147,-13.232528 -48.556923,-13.267902 -48.367256,-14.54808 -49.651981,-14.512706 "
   id="polygon54"
   style="display:inline;fill:#0055b8" />
			<polygon
   class="st1"
   points="-51.727696,-13.308516 -50.698875,-13.337148 -50.546856,-14.359919 -51.574947,-14.331326 "
   id="polygon56"
   style="display:inline;fill:#0055b8" />
			<polygon
   class="st1"
   points="-53.640869,-13.356685 -52.817512,-13.379266 -52.697094,-14.198113 -53.518948,-14.175533 "
   id="polygon58"
   style="display:inline;fill:#0055b8" />
			<polygon
   class="st1"
   points="-55.578094,-13.383774 -54.919544,-13.401847 -54.822479,-14.05812 -55.479523,-14.040086 "
   id="polygon60"
   style="display:inline;fill:#0055b8" />
			<polygon
   class="st1"
   points="-57.533386,-13.395835 -57.008091,-13.410132 -56.932064,-13.933963 -57.456627,-13.919667 "
   id="polygon62"
   style="display:inline;fill:#0055b8" />
			<polygon
   class="st1"
   points="-59.506752,-13.39283 -59.085308,-13.40412 -59.022842,-13.824064 -59.443558,-13.812041 "
   id="polygon64"
   style="display:inline;fill:#0055b8" />
			<path
   class="st1"
   d="m -85.624123,-4.487112 c 0,-0.9843907 -0.409423,-1.4502673 -1.394584,-1.4502673 -1.176369,0 -1.887589,0.8210835 -2.187889,2.435467 l -1.149239,7.5939026 h -3.719421 l 2.625137,-16.0187153 c 0.02782,-0.109129 0.02782,-0.219027 0.02782,-0.328156 0,-0.520055 -0.300293,-0.820351 -0.87526,-0.820351 -0.136261,0 -0.273208,0.02709 -0.438057,0.05495 l 0.328926,-1.996679 c 0.739045,-0.191168 1.395318,-0.301067 1.968819,-0.301067 1.804779,0 2.789978,0.902391 2.789978,2.598042 0,0.328888 -0.05495,0.656274 -0.109894,1.012289 l -0.737579,4.1589407 h 0.05421 c 0.793258,-0.9317145 1.942505,-1.4510379 3.173782,-1.4510379 2.160026,0 3.444748,1.3125849 3.444748,3.6645103 0,0.4380164 -0.02713,0.9573007 -0.136254,1.5315738 l -1.148468,7.8957014 h -3.747284 l 1.148468,-7.6767125 c 0.05495,-0.3552066 0.08204,-0.6555026 0.08204,-0.9023898 z"
   id="path66"
   inkscape:connector-curvature="0"
   style="display:inline;fill:#0055b8" />
			<path
   class="st1"
   d="m -44.038227,4.0588899 2.598812,-16.0187149 c 0.02782,-0.109129 0.02782,-0.218257 0.02782,-0.328155 0,-0.520056 -0.301026,-0.819581 -0.90239,-0.819581 -0.136215,0 -0.273167,0.02632 -0.438015,0.05418 l 0.355244,-1.996719 c 0.738312,-0.191167 1.395355,-0.301028 1.970363,-0.301028 1.80478,0 2.761349,0.902391 2.761349,2.571685 0,0.327385 -0.05418,0.655541 -0.109131,1.038607 l -2.543091,15.7997269 h -3.720962 z"
   id="path68"
   inkscape:connector-curvature="0"
   style="display:inline;fill:#0055b8" />
			<path
   class="st1"
   d="m -147.34595,-12.266172 h 3.61183 c 0.78199,8.8726173 0.82036,10.0015493 0.84444,11.852262 h 0.0452 c 0.54036,-1.6934168 1.02882,-3.3409011 3.98661,-11.852262 h 3.58922 c 0.5987,8.8944659 0.63184,9.7524266 0.68602,11.852262 h 0.0459 c 0.49524,-1.5353503 0.97012,-2.9344828 4.37045,-11.852262 h 3.43119 l -6.92484,16.2083802 h -3.25093 c -0.51103,-7.946104 -0.57423,-9.5258846 -0.66154,-12.6417084 h -0.0452 c -0.95129,3.1158237 -1.39308,4.2899175 -4.35014,12.6417084 h -3.16022 z"
   id="path70"
   inkscape:connector-curvature="0"
   style="display:inline;fill:#0055b8" />
			<path
   class="st1"
   d="m -124.7339,-3.2106721 c 0.41243,-1.5797417 1.34041,-2.5280259 2.83059,-2.5280259 1.01526,0 2.17128,0.5862956 2.06894,2.5280259 z m 4.22745,3.6795767 c -0.37481,0.8579603 -1.34267,1.3103114 -2.22326,1.3103114 -2.55133,0 -2.43469,-2.0335953 -2.39331,-2.9359856 h 8.24043 l 0.0805,-0.5637145 c 0.80152,-5.4858212 -2.3068,-6.6154852 -4.67829,-6.6154852 -5.25928,0 -6.4311,4.628593 -6.64257,6.0728488 -0.72101,4.944726 1.63842,6.5703616 5.02445,6.5703616 2.05463,0 4.5857,-0.9482839 5.84334,-3.8383369 h -3.25132 z"
   id="path72"
   inkscape:connector-curvature="0"
   style="display:inline;fill:#0055b8" />
			<path
   class="st1"
   d="m -107.51701,-0.3213515 c -0.21374,1.4683394 -1.76717,2.3707297 -3.16777,2.3707297 -0.60887,0 -1.41719,-0.3386756 -1.25612,-1.4457586 0.19116,-1.3095793 1.20492,-1.6015902 2.40837,-1.8047802 1.3389,-0.2032285 1.88833,-0.4056478 2.24052,-0.6547704 z m 3.75557,-4.5367666 c 0.43123,-2.9570637 -2.58525,-3.4778509 -4.27867,-3.4778509 -2.46105,0 -5.08841,0.5207872 -5.9863,4.198823 h 3.04809 c 0.19194,-0.6991615 0.60514,-1.6700268 2.18487,-1.6700268 0.81281,0 2.06743,0.068475 1.87249,1.3998647 -0.0978,0.6765804 -0.73754,0.8805411 -1.2433,0.947552 l -2.90736,0.4297316 c -2.0524,0.2927816 -3.71718,1.4901882 -4.05964,3.8376048 -0.36125,2.4828637 1.34118,3.4996612 3.14669,3.4996612 2.14496,0 3.30626,-0.9949486 4.13713,-1.7393107 -0.0316,0.6773899 -0.0128,0.8579988 0.0858,1.4217134 h 3.40861 l 0.0692,-0.4733906 c -0.36353,-0.1354856 -0.63369,-0.4515805 -0.42673,-1.8732938 z"
   id="path74"
   inkscape:connector-curvature="0"
   style="display:inline;fill:#0055b8" />
			<path
   class="st1"
   d="m -96.934441,-8.0191422 h 1.96431 l -0.329658,2.2578635 h -1.96431 l -0.952065,6.5236969 c -0.101608,0.7007029 -0.118911,0.9708651 1.168045,0.9708651 0.203232,0 0.432778,-0.022581 0.661553,-0.045894 l -0.348465,2.3933105 c -0.501206,0.022581 -1.000954,0.04443 -1.497696,0.04443 h -0.405647 c -2.732026,0 -3.077446,-1.0378757 -2.850176,-2.5950363 l 1.0642,-7.2913723 h -1.62641 l 0.33116,-2.2578635 h 1.62413 l 0.474933,-3.2513097 h 3.160988 z"
   id="path76"
   inkscape:connector-curvature="0"
   style="display:inline;fill:#0055b8" />
			<path
   class="st1"
   d="m -76.815476,-3.243773 c 0.411698,-1.5797415 1.340409,-2.5280256 2.829094,-2.5280256 1.017533,0 2.172821,0.586257 2.071206,2.5280256 z m 4.227456,3.6795383 c -0.374047,0.8579989 -1.343415,1.3103116 -2.223992,1.3103116 -2.549102,0 -2.43396,-2.0335569 -2.392578,-2.9359469 h 8.239655 l 0.08131,-0.5637145 c 0.801552,-5.4858217 -2.307533,-6.6155233 -4.677528,-6.6155233 -5.26078,0 -6.43264,4.628593 -6.643349,6.0728874 -0.721008,4.9446878 1.637703,6.5703621 5.02446,6.5703621 2.055405,0 4.586471,-0.9483225 5.842567,-3.8383756 h -3.250541 z"
   id="path78"
   inkscape:connector-curvature="0"
   style="display:inline;fill:#0055b8" />
			<path
   class="st1"
   d="m -65.384697,-8.0515108 h 3.024769 l -0.304074,2.0764837 h 0.0459 c 0.831642,-1.2199874 1.726517,-2.3940811 3.644936,-2.3940811 0.202457,0 0.402641,0.024084 0.602863,0.045933 l -0.46738,3.2053766 c -0.26492,-0.045162 -0.602093,-0.045162 -0.89711,-0.045162 -2.46032,0 -3.13617,1.5346179 -3.329609,2.8667395 l -0.912911,6.2527647 h -3.160988 z"
   id="path80"
   inkscape:connector-curvature="0"
   style="display:inline;fill:#0055b8" />
			<path
   class="st1"
   d="m -54.447659,3.9565434 h -3.386024 l 2.414391,-15.4557724 h 11.536125 l -0.419212,2.8667011 h -8.149331 l -0.533619,3.6577282 h 7.134076 l -0.41771,2.86674 h -7.134075 z"
   id="path82"
   inkscape:connector-curvature="0"
   style="display:inline;fill:#0055b8" />
			<path
   class="st1"
   d="m -28.054848,-2.0139976 c -0.222803,1.5353501 -0.985931,3.6569571 -3.422939,3.6569571 -2.437702,0 -2.580704,-2.1216071 -2.357166,-3.6569571 0.224998,-1.5353503 0.985893,-3.6577282 3.424404,-3.6577282 2.438473,1e-7 2.579199,2.1223779 2.355701,3.6577282 z m 3.24977,0 c 0.633729,-4.3350792 -1.988396,-6.3219714 -5.217896,-6.3219714 -3.227224,0 -6.429598,1.9868922 -7.063288,6.3219714 -0.631458,4.3328443 1.991398,6.321239 5.219397,6.321239 3.22946,0 6.429596,-1.9883947 7.061787,-6.321239 z"
   id="path84"
   inkscape:connector-curvature="0"
   style="display:inline;fill:#0055b8" />
			<path
   class="st1"
   d="m -11.407707,3.9896441 h -3.250551 l -0.595313,-8.7589798 H -15.298 l -3.151968,8.7589798 h -3.251311 L -23.33597,-8.0191421 h 3.364986 l 0.61562,8.6227617 h 0.04366 l 2.953287,-8.6227617 h 3.182056 l 0.547908,8.6227617 h 0.04516 l 3.1323931,-8.6227617 h 3.2505584 z"
   id="path86"
   inkscape:connector-curvature="0"
   style="display:inline;fill:#0055b8" />
			<g
   class="st2"
   id="g138"
   style="display:inline">
				<path
   class="st3"
   d="m -146.49229,7.2057719 h 1.74836 c 1.26966,0 1.57505,0.6175079 1.47097,1.4224458 -0.0487,0.4440279 -0.33303,0.846323 -0.74942,1.0337143 0.48564,0.1456194 0.70764,0.62429 0.63844,1.221144 -0.11102,0.860233 -0.61058,1.526294 -1.95665,1.526294 h -1.7901 z m 0.22203,4.4889851 h 1.04069 c 0.72852,0 0.95752,-0.402257 1.01302,-0.832759 0.0625,-0.534006 -0.14582,-0.825631 -0.80493,-0.825631 h -1.04764 z m 1.45689,-3.7743712 h -0.99214 l -0.18045,1.4570489 h 1.02 c 0.62448,0 0.81865,-0.3815641 0.86042,-0.7146139 0.0416,-0.3469601 -0.0279,-0.742435 -0.70783,-0.742435 z"
   id="path88"
   inkscape:connector-curvature="0"
   style="fill:#0055b8" />
				<path
   class="st3"
   d="m -142.09491,10.95945 c -0.0486,0.520056 0.0973,0.860234 0.8049,0.860234 0.43709,0 0.80475,-0.07638 1.13082,-0.208084 l -0.0832,0.66606 c -0.41621,0.166314 -0.87419,0.214866 -1.24898,0.214866 -1.15867,0 -1.49168,-0.693535 -1.35284,-1.817573 0.13869,-1.1172556 0.63145,-1.8179592 1.77618,-1.8179592 1.01981,0 1.35282,0.4786701 1.27663,1.0755243 -0.0694,0.5964299 -0.51346,1.0269319 -1.53327,1.0269319 h -0.77029 z m 0.82559,-0.541519 c 0.40943,0 0.68001,-0.131709 0.72179,-0.4440273 0.0346,-0.3119717 -0.20828,-0.444067 -0.61751,-0.444067 -0.569,0 -0.77034,0.3680391 -0.86047,0.8880943 z"
   id="path90"
   inkscape:connector-curvature="0"
   style="fill:#0055b8" />
				<path
   class="st3"
   d="m -135.14395,12.443974 c -0.12493,0.02786 -0.31909,0.04855 -0.43704,0.04855 -0.77015,0 -1.17957,-0.333011 -1.08945,-1.082267 l 0.22205,-1.8107908 h -1.51239 l -0.20829,1.7204678 c -0.0416,0.34696 0.11098,0.513658 0.5065,0.513658 0.118,0 0.22203,-0.01391 0.30538,-0.02782 l -0.0764,0.638201 c -0.12494,0.02786 -0.31911,0.04855 -0.43706,0.04855 -0.77014,0 -1.17957,-0.333011 -1.08925,-1.082267 l 0.22203,-1.8107907 h -0.63145 l 0.0625,-0.4786701 0.65214,-0.1806087 0.10405,-0.8256302 0.79796,-0.2220335 -0.12492,1.0476637 h 1.51257 l 0.10403,-0.8256302 0.79798,-0.2220335 -0.12493,1.0476637 h 0.97823 l -0.0832,0.6592789 h -0.97838 l -0.20811,1.7204676 c -0.0416,0.34696 0.11101,0.513658 0.50653,0.513658 0.11798,0 0.22203,-0.01391 0.30519,-0.02782 z"
   id="path92"
   inkscape:connector-curvature="0"
   style="fill:#0055b8" />
				<path
   class="st3"
   d="m -133.63307,10.95945 c -0.0485,0.520056 0.0973,0.860234 0.80495,0.860234 0.43708,0 0.80474,-0.07638 1.13101,-0.208084 l -0.0833,0.66606 c -0.41641,0.166314 -0.87419,0.214866 -1.24882,0.214866 -1.15883,0 -1.49184,-0.693535 -1.353,-1.817573 0.13869,-1.1172556 0.63126,-1.8179592 1.77619,-1.8179592 1.01995,0 1.35301,0.4786701 1.27662,1.0755243 -0.0694,0.5964299 -0.5135,1.0269319 -1.53346,1.0269319 h -0.77014 z m 0.82583,-0.541519 c 0.40923,0 0.67981,-0.131709 0.72139,-0.4440273 0.0348,-0.3119717 -0.20813,-0.444067 -0.61735,-0.444067 -0.56896,0 -0.7701,0.3680391 -0.86043,0.8880943 z"
   id="path94"
   inkscape:connector-curvature="0"
   style="fill:#0055b8" />
				<path
   class="st3"
   d="m -128.56229,9.5648642 c -0.0834,-0.02786 -0.21507,-0.041771 -0.37463,-0.041771 -0.40942,0 -0.72853,0.097068 -0.91592,0.2080841 l -0.32607,2.6781937 h -0.77708 l 0.42314,-3.4691817 h 0.45798 l 0.0901,0.2777147 c 0.2845,-0.2081223 0.68695,-0.3609104 1.13795,-0.3609104 0.14566,0 0.27059,0.020732 0.36765,0.041771 z"
   id="path96"
   inkscape:connector-curvature="0"
   style="fill:#0055b8" />
				<path
   class="st3"
   d="m -126.98856,12.40937 0.63839,-5.2035981 h 1.54722 c 1.72763,0 2.06762,1.1240382 1.88716,2.6017795 -0.18739,1.4777806 -0.79796,2.6018186 -2.52559,2.6018186 z m 0.86042,-0.714613 h 0.79084 c 1.04084,0 1.47096,-0.756385 1.60964,-1.8872056 0.13888,-1.1307812 -0.10404,-1.8871655 -1.14473,-1.8871655 h -0.79099 z"
   id="path98"
   inkscape:connector-curvature="0"
   style="fill:#0055b8" />
				<path
   class="st3"
   d="m -119.52448,12.40937 h -0.45798 l -0.0971,-0.277714 c -0.33304,0.222032 -0.70089,0.36087 -1.16561,0.36087 -1.01302,0 -1.3045,-0.679971 -1.16562,-1.817573 0.13865,-1.1379484 0.59663,-1.8179592 1.60964,-1.8179592 0.46476,0 0.80475,0.1388769 1.08227,0.3609104 l 0.15957,-0.2777147 h 0.45798 z m -0.45101,-2.6921039 c -0.13189,-0.076412 -0.35389,-0.2009544 -0.72155,-0.2009544 -0.68,0 -0.84651,0.5132733 -0.92967,1.1586413 -0.0764,0.644983 -0.0348,1.158641 0.64518,1.158641 0.36784,0 0.62448,-0.124927 0.7701,-0.201301 z"
   id="path100"
   inkscape:connector-curvature="0"
   style="fill:#0055b8" />
				<path
   class="st3"
   d="m -116.77816,12.443974 c -0.12493,0.02786 -0.31914,0.04855 -0.4371,0.04855 -0.77009,0 -1.17952,-0.333011 -1.08924,-1.082267 l 0.22204,-1.8107908 h -0.63146 l 0.0625,-0.4786701 0.65214,-0.1806087 0.10405,-0.8256302 0.79796,-0.2220335 -0.12493,1.0476637 h 0.97823 l -0.0832,0.6592789 h -0.97822 l -0.20828,1.7204677 c -0.0416,0.34696 0.11102,0.513658 0.50649,0.513658 0.11799,0 0.22204,-0.01391 0.30538,-0.02782 z"
   id="path102"
   inkscape:connector-curvature="0"
   style="fill:#0055b8" />
				<path
   class="st3"
   d="m -113.12949,12.40937 h -0.45797 l -0.0971,-0.277714 c -0.33306,0.222032 -0.7009,0.36087 -1.16562,0.36087 -1.01302,0 -1.30449,-0.679971 -1.16561,-1.817573 0.13868,-1.1379484 0.59662,-1.8179592 1.60964,-1.8179592 0.46476,0 0.80474,0.1388769 1.08227,0.3609104 l 0.15957,-0.2777147 h 0.45797 z m -0.451,-2.6921039 c -0.1319,-0.076412 -0.3539,-0.2009544 -0.72155,-0.2009544 -0.68001,0 -0.84652,0.5132733 -0.92967,1.1586413 -0.0764,0.644983 -0.0348,1.158641 0.64517,1.158641 0.36785,0 0.62449,-0.124927 0.7701,-0.201301 z"
   id="path104"
   inkscape:connector-curvature="0"
   style="fill:#0055b8" />
				<path
   class="st3"
   d="m -111.93732,11.479506 c 0.27752,0 0.50649,0.229161 0.50649,0.506529 0,0.277715 -0.22897,0.506491 -0.50649,0.506491 -0.27752,0 -0.50654,-0.228776 -0.50654,-0.506491 0,-0.277368 0.22902,-0.506529 0.50654,-0.506529 z"
   id="path106"
   inkscape:connector-curvature="0"
   style="fill:#0055b8" />
				<path
   class="st3"
   d="m -108.77425,7.2057719 h 1.74833 c 1.26965,0 1.57503,0.6175079 1.47099,1.4224458 -0.0486,0.4440279 -0.33305,0.846323 -0.74944,1.0337143 0.48564,0.1456194 0.70767,0.62429 0.63842,1.221144 -0.11101,0.860233 -0.61057,1.526294 -1.95664,1.526294 h -1.7901 z m 0.22199,4.4889851 h 1.04069 c 0.72852,0 0.95753,-0.402257 1.01302,-0.832759 0.0623,-0.534006 -0.14581,-0.825631 -0.8049,-0.825631 h -1.04766 z m 1.45689,-3.7743712 h -0.99213 l -0.18026,1.4570489 h 1.0198 c 0.62448,0 0.81865,-0.3815641 0.86043,-0.7146139 0.0416,-0.3469601 -0.0278,-0.742435 -0.70784,-0.742435 z"
   id="path108"
   inkscape:connector-curvature="0"
   style="fill:#0055b8" />
				<path
   class="st3"
   d="m -104.37691,10.95945 c -0.0486,0.520056 0.0973,0.860234 0.80494,0.860234 0.43705,0 0.8047,-0.07638 1.13098,-0.208084 l -0.0834,0.66606 c -0.41639,0.166314 -0.87414,0.214866 -1.24877,0.214866 -1.15883,0 -1.49188,-0.693535 -1.353,-1.817573 0.13864,-1.1172556 0.63122,-1.8179592 1.77614,-1.8179592 1.02,0 1.35305,0.4786701 1.27664,1.0755243 -0.0694,0.5964299 -0.51347,1.0269319 -1.53346,1.0269319 h -0.77011 z m 0.82583,-0.541519 c 0.40923,0 0.67978,-0.131709 0.72135,-0.4440273 0.0348,-0.3119717 -0.20808,-0.444067 -0.61731,-0.444067 -0.569,0 -0.77014,0.3680391 -0.86042,0.8880943 z"
   id="path110"
   inkscape:connector-curvature="0"
   style="fill:#0055b8" />
				<path
   class="st3"
   d="m -97.425903,12.443974 c -0.12497,0.02786 -0.319138,0.04855 -0.437096,0.04855 -0.770103,0 -1.179527,-0.333011 -1.089432,-1.082267 L -98.7304,9.5994682 h -1.51238 l -0.20828,1.7204678 c -0.0416,0.34696 0.11102,0.513658 0.506495,0.513658 0.117989,0 0.222031,-0.01391 0.305382,-0.02782 l -0.07638,0.638201 c -0.124924,0.02786 -0.319137,0.04855 -0.437087,0.04855 -0.7701,0 -1.17953,-0.333011 -1.08924,-1.082267 l 0.22203,-1.8107907 h -0.63145 l 0.0625,-0.4786701 0.65215,-0.1806087 0.10404,-0.8256302 0.79796,-0.2220335 -0.12492,1.0476637 h 1.512569 l 0.104042,-0.8256302 0.797966,-0.2220335 -0.124931,1.0476637 h 0.978226 l -0.08315,0.6592789 h -0.978424 L -98.1614,11.319936 c -0.04158,0.34696 0.111016,0.513658 0.506485,0.513658 0.117996,0 0.222038,-0.01391 0.305382,-0.02782 z"
   id="path112"
   inkscape:connector-curvature="0"
   style="fill:#0055b8" />
				<path
   class="st3"
   d="m -95.915024,10.95945 c -0.04855,0.520056 0.09726,0.860234 0.804901,0.860234 0.437088,0 0.804741,-0.07638 1.130821,-0.208084 l -0.08316,0.66606 c -0.416206,0.166314 -0.874184,0.214866 -1.248962,0.214866 -1.158684,0 -1.491692,-0.693535 -1.352852,-1.817573 0.138679,-1.1172556 0.631454,-1.8179592 1.776184,-1.8179592 1.019806,0 1.352814,0.4786701 1.276634,1.0755243 -0.06944,0.5964299 -0.513466,1.0269319 -1.533272,1.0269319 z m 0.825592,-0.541519 c 0.409424,0 0.680008,-0.131709 0.721779,-0.4440273 0.03461,-0.3119717 -0.208275,-0.444067 -0.617546,-0.444067 -0.568954,0 -0.770294,0.3680391 -0.860428,0.8880943 z"
   id="path114"
   inkscape:connector-curvature="0"
   style="fill:#0055b8" />
				<path
   class="st3"
   d="m -90.844292,9.5648642 c -0.08315,-0.02786 -0.215248,-0.041771 -0.374778,-0.041771 -0.409424,0 -0.728524,0.097068 -0.915573,0.2080841 l -0.326264,2.6781937 h -0.777077 l 0.42318,-3.4691817 h 0.45813 l 0.08993,0.2777147 c 0.2845,-0.2081223 0.686798,-0.3609104 1.137993,-0.3609104 0.145615,0 0.270546,0.020732 0.367653,0.041771 z"
   id="path116"
   inkscape:connector-curvature="0"
   style="fill:#0055b8" />
				<path
   class="st3"
   d="m -89.270561,12.40937 0.638237,-5.2035981 h 1.546989 c 1.727638,0 2.067818,1.1240382 1.887207,2.6017795 -0.187042,1.4777806 -0.797775,2.6018186 -2.525406,2.6018186 z m 0.860237,-0.714613 h 0.791023 c 1.040497,0 1.470612,-0.756385 1.609452,-1.8872056 0.138877,-1.1307812 -0.103852,-1.8871655 -1.14473,-1.8871655 h -0.790985 z"
   id="path118"
   inkscape:connector-curvature="0"
   style="fill:#0055b8" />
				<path
   class="st3"
   d="m -83.943535,10.95945 c -0.04852,0.520056 0.0971,0.860234 0.804932,0.860234 0.437286,0 0.804939,-0.07638 1.130821,-0.208084 l -0.08315,0.66606 c -0.416206,0.166314 -0.874184,0.214866 -1.24897,0.214866 -1.158676,0 -1.491691,-0.693535 -1.352852,-1.817573 0.138878,-1.1172556 0.631462,-1.8179592 1.776192,-1.8179592 1.019798,0 1.352814,0.4786701 1.276436,1.0755243 -0.06924,0.5964299 -0.513275,1.0269319 -1.533074,1.0269319 h -0.770332 z m 0.82563,-0.541519 c 0.409424,0 0.680008,-0.131709 0.721779,-0.4440273 0.0346,-0.3119717 -0.208122,-0.444067 -0.617546,-0.444067 -0.568954,0 -0.770294,0.3680391 -0.860237,0.8880943 z"
   id="path120"
   inkscape:connector-curvature="0"
   style="fill:#0055b8" />
				<path
   class="st3"
   d="m -79.643059,11.805773 c 0.402641,0 0.666054,-0.06246 0.929863,-0.15957 l -0.08316,0.672843 c -0.284493,0.118184 -0.617546,0.17348 -0.978417,0.17348 -1.227882,0 -1.512382,-0.735306 -1.380676,-1.817573 0.131714,-1.0826525 0.596817,-1.8179592 1.824707,-1.8179592 0.360909,0 0.680008,0.05572 0.936646,0.173481 l -0.08316,0.672843 c -0.235939,-0.097068 -0.485832,-0.1595316 -0.888092,-0.1595316 -0.673225,0 -0.922699,0.4579388 -1.006241,1.1311668 -0.08315,0.672843 0.05569,1.13082 0.72853,1.13082 z"
   id="path122"
   inkscape:connector-curvature="0"
   style="fill:#0055b8" />
				<path
   class="st3"
   d="m -77.971878,11.55588 0.319099,-2.6156906 h 0.777077 l -0.319099,2.6089466 c -0.02783,0.194173 0.03464,0.263419 0.256637,0.263419 l -0.07638,0.631419 c 0,0 -0.06924,0.01395 -0.152397,0.01395 -0.631462,0 -0.881317,-0.305189 -0.804939,-0.902043 z m 0.832413,-4.148806 c 0.27771,0 0.506492,0.2288151 0.506492,0.5061445 0,0.2777147 -0.228782,0.5065298 -0.506492,0.5065298 -0.277367,0 -0.506531,-0.2288151 -0.506531,-0.5065298 0,-0.2773294 0.229164,-0.5061445 0.506531,-0.5061445 z"
   id="path124"
   inkscape:connector-curvature="0"
   style="fill:#0055b8" />
				<path
   class="st3"
   d="m -74.871086,10.327992 c 1.033714,0.08994 1.262878,0.402295 1.1865,1.047664 -0.07641,0.59643 -0.506523,1.11687 -1.616615,1.11687 -0.478668,0 -0.895264,-0.08994 -1.124039,-0.18739 l 0.08316,-0.666062 c 0.22203,0.08354 0.576118,0.19452 1.013015,0.19452 0.555047,0 0.839547,-0.124927 0.874184,-0.430116 0.03461,-0.257022 -0.06246,-0.388732 -0.520439,-0.430464 -1.033714,-0.08994 -1.255745,-0.416207 -1.179375,-1.0126745 0.06925,-0.5968151 0.520447,-1.1033459 1.540245,-1.1033459 0.471886,0 0.797776,0.05572 1.054795,0.173481 l -0.08354,0.672843 c -0.284111,-0.1110172 -0.596428,-0.1941738 -1.033714,-0.1941738 -0.409424,0 -0.680008,0.1181841 -0.721398,0.4301176 -0.02782,0.2431106 0.08316,0.3469606 0.527222,0.3887306 z"
   id="path126"
   inkscape:connector-curvature="0"
   style="fill:#0055b8" />
				<path
   class="st3"
   d="m -72.963959,11.55588 0.3191,-2.6156906 h 0.777076 l -0.319099,2.6089466 c -0.02786,0.194173 0.03464,0.263419 0.256638,0.263419 l -0.07637,0.631419 c 0,0 -0.06925,0.01395 -0.152404,0.01395 -0.631455,0 -0.88131,-0.305189 -0.80494,-0.902043 z m 0.832413,-4.148806 c 0.277718,0 0.506493,0.2288151 0.506493,0.5061445 0,0.2777147 -0.228775,0.5065298 -0.506493,0.5065298 -0.277367,0 -0.506531,-0.2288151 -0.506531,-0.5065298 0,-0.2773294 0.229164,-0.5061445 0.506531,-0.5061445 z"
   id="path128"
   inkscape:connector-curvature="0"
   style="fill:#0055b8" />
				<path
   class="st3"
   d="m -71.243835,10.674953 c 0.131706,-1.0687032 0.527183,-1.8179593 1.762237,-1.8179593 1.235054,0 1.450302,0.7492561 1.318215,1.8179593 -0.131714,1.068356 -0.527192,1.817573 -1.762246,1.817573 -1.235054,0 -1.44992,-0.749217 -1.318206,-1.817573 z m 2.296592,0 c 0.08994,-0.742435 0.04855,-1.1658092 -0.610733,-1.1658092 -0.658928,0 -0.811714,0.4233742 -0.902,1.1658092 -0.08994,0.742089 -0.04143,1.165424 0.617508,1.165424 0.659279,0 0.804939,-0.423335 0.895225,-1.165424 z"
   id="path130"
   inkscape:connector-curvature="0"
   style="fill:#0055b8" />
				<path
   class="st3"
   d="m -65.58342,12.40937 0.291283,-2.379785 c 0.04177,-0.3537427 -0.117798,-0.5132733 -0.485451,-0.5132733 -0.36087,0 -0.624679,0.097067 -0.825981,0.2009544 l -0.325882,2.6921039 h -0.777077 l 0.423333,-3.4691807 h 0.457595 l 0.09032,0.2777147 c 0.381561,-0.2431116 0.790985,-0.3609104 1.165809,-0.3609104 0.880928,0 1.14473,0.4372845 1.061531,1.1033459 l -0.298408,2.4490305 h -0.777077 z"
   id="path132"
   inkscape:connector-curvature="0"
   style="fill:#0055b8" />
				<path
   class="st3"
   d="m -62.58046,10.327992 c 1.033715,0.08994 1.262875,0.402295 1.186501,1.047664 -0.07637,0.59643 -0.506531,1.11687 -1.616619,1.11687 -0.478668,0 -0.89526,-0.08994 -1.124035,-0.18739 l 0.08315,-0.666062 c 0.222034,0.08354 0.576126,0.19452 1.013023,0.19452 0.555084,0 0.839542,-0.124927 0.874184,-0.430116 0.0346,-0.257022 -0.06247,-0.388732 -0.520439,-0.430464 -1.033715,-0.08994 -1.255749,-0.416207 -1.179375,-1.0126745 0.06924,-0.5968151 0.520439,-1.1033459 1.540245,-1.1033459 0.471886,0 0.798153,0.05572 1.054791,0.173481 l -0.08354,0.672843 c -0.284497,-0.1110172 -0.596428,-0.1941738 -1.033715,-0.1941738 -0.409423,0 -0.679969,0.1181841 -0.721393,0.4301176 -0.02782,0.2431106 0.08319,0.3469606 0.527221,0.3887306 z"
   id="path134"
   inkscape:connector-curvature="0"
   style="fill:#0055b8" />
				<path
   class="st3"
   d="m -60.416695,11.479506 c 0.277714,0 0.506527,0.229161 0.506527,0.506529 0,0.277715 -0.228813,0.506491 -0.506527,0.506491 -0.277332,0 -0.506492,-0.228776 -0.506492,-0.506491 0,-0.277368 0.22916,-0.506529 0.506492,-0.506529 z"
   id="path136"
   inkscape:connector-curvature="0"
   style="fill:#0055b8" />
			</g>
		</g>
		
			<text
   transform="matrix(1.07513,0,0,1,195.24902,150.41113)"
   style="font-size:9.07614994px;font-family:MicrosoftSansSerif;display:none;fill:#0055b8;stroke:#8a9197;stroke-width:0.21833999"
   id="text142">Better Data.  Better Decisions.</text>

	</g>
</g>
</svg>